<svg width="111" height="113" viewBox="0 0 111 113" fill="none" xmlns="http://www.w3.org/2000/svg">
<g id="Group 19">
<g id="Group">
<g id="Group_2">
<path id="Vector" fill-rule="evenodd" clip-rule="evenodd" d="M101.75 18.8286C106.845 18.8286 111 22.9842 111 28.0786V90.5913C111 95.6857 106.844 99.8413 101.75 99.8413H9.25C4.15556 99.8413 0 95.6859 0 90.5913V28.0786C0 22.9839 4.15533 18.8286 9.25 18.8286H101.75Z" fill="#636C77"/>
<path id="Vector_2" fill-rule="evenodd" clip-rule="evenodd" d="M101.75 25.3034H9.2501C7.7294 25.3034 6.4751 26.5577 6.4751 28.0784V90.591C6.4751 92.1115 7.72963 93.3661 9.2501 93.3661H101.75C103.271 93.3661 104.525 92.1113 104.525 90.591V28.0786C104.525 26.5579 103.271 25.3034 101.75 25.3034Z" fill="#A4D4FF"/>
<path id="Vector_3" d="M62.3036 55.486C66.0678 51.7219 66.0678 45.619 62.3036 41.8549C58.5395 38.0908 52.4366 38.0908 48.6725 41.8549C44.9084 45.619 44.9084 51.7219 48.6725 55.486C52.4366 59.2502 58.5395 59.2502 62.3036 55.486Z" fill="#F4F6F8"/>
</g>
<path id="Vector_4" fill-rule="evenodd" clip-rule="evenodd" d="M60.258 79.1923L60.285 53.4604C60.2871 50.8271 58.1328 48.6712 55.4998 48.6696C52.8674 48.668 50.7106 50.8209 50.709 53.4541L50.7127 90.5802C46.5508 89.1968 44.3699 89.734 42.8606 92.0403C41.1599 94.6388 41.8068 98.0683 44.3209 99.8924C55.2482 107.821 55.7833 111.827 69.0492 112.586C80.4329 113.238 89.0856 103.984 89.1147 93.4312L89.0007 79.035C89.003 76.4018 86.8487 74.2461 84.2157 74.2447C81.5834 74.2428 79.4265 76.3958 79.4284 79.0322C79.4337 76.402 77.2794 74.2465 74.6463 74.2447C72.0138 74.2431 69.8569 76.396 69.8578 79.0322C69.8622 76.4018 67.7077 74.2465 65.0749 74.2447C62.4435 74.2428 60.2452 76.5592 60.258 79.1923Z" fill="#EFC7A4"/>
<g id="Group_3">
<path id="Vector_5" d="M24.866 85.3685C33.1675 85.3685 39.8972 78.6388 39.8972 70.3372C39.8972 62.0357 33.1675 55.306 24.866 55.306C16.5644 55.306 9.83472 62.0357 9.83472 70.3372C9.83472 78.6388 16.5644 85.3685 24.866 85.3685Z" fill="#38A8D2"/>
<g id="Group_4">
<path id="Vector_6" fill-rule="evenodd" clip-rule="evenodd" d="M23.2419 67.5329C23.2419 66.6423 23.9639 65.9203 24.8544 65.9203C25.745 65.9203 26.467 66.6423 26.467 67.5329L26.4672 79.3525C26.4672 80.243 25.7452 80.965 24.8547 80.965C23.9641 80.965 23.2422 80.243 23.2422 79.3525L23.2419 67.5329Z" fill="#C6EA94"/>
<path id="Vector_7" fill-rule="evenodd" clip-rule="evenodd" d="M24.8659 74.5582C26.7208 74.9632 28.7266 74.7055 30.5006 73.6811C32.2747 72.6567 33.501 71.0479 34.0775 69.2386C34.1187 69.1091 34.1046 68.9819 34.0359 68.8646C33.9672 68.7474 33.8634 68.6727 33.7302 68.6454C31.8455 68.2567 29.6641 68.6153 28.0976 69.5198C26.3956 70.5026 25.5132 71.8443 24.8544 73.2845C24.1955 71.8443 23.3362 70.5026 21.634 69.5198C20.0675 68.6153 17.8861 68.2569 16.0014 68.6459C15.8684 68.6734 15.7644 68.7481 15.6957 68.8651C15.627 68.9823 15.6129 69.1095 15.6543 69.239C16.2308 71.0486 17.4574 72.6571 19.2315 73.6813C21.0052 74.7055 23.0111 74.9632 24.8659 74.5582Z" fill="#C6EA94"/>
</g>
</g>
<path id="Vector_8" fill-rule="evenodd" clip-rule="evenodd" d="M64.4382 13.9899C65.0702 14.6219 65.0702 15.6468 64.4382 16.2788C63.8062 16.9108 62.7813 16.9108 62.1491 16.2788C61.2754 15.4052 60.2415 14.7052 59.1017 14.233C58 13.7767 56.7839 13.5249 55.5 13.5249C54.2161 13.5249 52.9999 13.7767 51.8982 14.233C50.7584 14.7052 49.7245 15.4052 48.8508 16.2788C48.2188 16.9108 47.1939 16.9108 46.5617 16.2788C45.9297 15.6468 45.9297 14.6219 46.5617 13.9899C47.7202 12.8314 49.114 11.8937 50.6715 11.2487C52.1667 10.6294 53.798 10.2876 55.5 10.2876C57.2017 10.2876 58.8332 10.6294 60.3285 11.2487C61.8859 11.8937 63.2797 12.8314 64.4382 13.9899ZM55.5 20.3845C56.9048 20.3845 58.0437 21.5234 58.0437 22.9282C58.0437 24.3331 56.9048 25.472 55.5 25.472C54.0951 25.472 52.9562 24.3331 52.9562 22.9282C52.9562 21.5234 54.0951 20.3845 55.5 20.3845ZM41.5766 9.00464C40.9446 9.63665 39.9197 9.63665 39.2875 9.00464C38.6555 8.37264 38.6555 7.34774 39.2875 6.7155C41.3946 4.60835 43.9213 2.90658 46.7374 1.74016C49.4447 0.618825 52.4047 0 55.5 0C58.5952 0 61.5552 0.618825 64.2625 1.74016C67.0786 2.90658 69.6053 4.60835 71.7124 6.7155C72.3444 7.34751 72.3444 8.37241 71.7124 9.00464C71.0804 9.63665 70.0555 9.63665 69.4233 9.00464C67.601 7.18239 65.4345 5.71835 63.0357 4.72467C60.7223 3.76637 58.1774 3.2375 55.5 3.2375C52.8225 3.2375 50.2776 3.76637 47.9642 4.72467C45.5655 5.71835 43.3986 7.18239 41.5766 9.00464Z" fill="#66D4F1"/>
<g id="Group_5">
<path id="Vector_9" d="M87.7102 57.3791C96.0117 57.3791 102.741 50.6494 102.741 42.3479C102.741 34.0464 96.0117 27.3166 87.7102 27.3166C79.4087 27.3166 72.679 34.0464 72.679 42.3479C72.679 50.6494 79.4087 57.3791 87.7102 57.3791Z" fill="#38A8D2"/>
<path id="Vector_10" fill-rule="evenodd" clip-rule="evenodd" d="M86.0911 32.7221C86.0911 31.8281 86.8159 31.1033 87.7099 31.1033C88.6039 31.1033 89.3286 31.8281 89.3286 32.7221V35.2009C89.3286 36.0949 88.6039 36.8196 87.7099 36.8196C86.8159 36.8196 86.0911 36.0949 86.0911 35.2009V32.7221ZM79.759 36.6859C79.127 36.0539 79.127 35.029 79.759 34.397C80.391 33.765 81.4159 33.765 82.0482 34.397L83.8008 36.1497C84.4328 36.7817 84.4328 37.8066 83.8008 38.4386C83.1688 39.0706 82.1439 39.0706 81.5117 38.4386L79.759 36.6859ZM78.0841 43.9666C77.1901 43.9666 76.4653 43.2419 76.4653 42.3479C76.4653 41.4539 77.1901 40.7291 78.0841 40.7291H80.5626C81.4566 40.7291 82.1814 41.4539 82.1814 42.3479C82.1814 43.2419 81.4566 43.9666 80.5626 43.9666H78.0841ZM82.0479 50.2987C81.4159 50.9307 80.391 50.9307 79.7588 50.2987C79.1268 49.6667 79.1268 48.6418 79.7588 48.0096L81.5114 46.2569C82.1434 45.6249 83.1683 45.6249 83.8006 46.2569C84.4326 46.8889 84.4326 47.9138 83.8006 48.5461L82.0479 50.2987ZM89.3288 51.9734C89.3288 52.8674 88.6041 53.5922 87.7101 53.5922C86.8161 53.5922 86.0913 52.8674 86.0913 51.9734V49.4949C86.0913 48.6009 86.8161 47.8761 87.7101 47.8761C88.6041 47.8761 89.3288 48.6009 89.3288 49.4949V51.9734ZM95.6609 48.0098C96.2929 48.6418 96.2929 49.6667 95.6609 50.2989C95.0289 50.9309 94.004 50.9309 93.3718 50.2989L91.6191 48.5463C90.9871 47.9143 90.9871 46.8894 91.6191 46.2571C92.2512 45.6251 93.276 45.6251 93.9083 46.2571L95.6609 48.0098ZM97.3356 40.7291C98.2297 40.7291 98.9544 41.4539 98.9544 42.3479C98.9544 43.2419 98.2297 43.9666 97.3356 43.9666H94.8571C93.9631 43.9666 93.2384 43.2419 93.2384 42.3479C93.2384 41.4539 93.9631 40.7291 94.8571 40.7291H97.3356ZM93.3718 34.3968C94.0038 33.7648 95.0287 33.7648 95.6609 34.3968C96.2929 35.0288 96.2929 36.0537 95.6609 36.6857L93.9083 38.4384C93.2763 39.0704 92.2514 39.0704 91.6191 38.4384C90.9871 37.8063 90.9871 36.7814 91.6191 36.1494L93.3718 34.3968Z" fill="#F5B945"/>
<path id="Vector_11" d="M87.7102 45.5851C89.4981 45.5851 90.9474 44.1358 90.9474 42.3479C90.9474 40.56 89.4981 39.1106 87.7102 39.1106C85.9223 39.1106 84.4729 40.56 84.4729 42.3479C84.4729 44.1358 85.9223 45.5851 87.7102 45.5851Z" fill="#FDCD56"/>
</g>
<g id="Group_6">
<path id="Vector_12" d="M17.9688 34.6188C26.2703 34.6188 33 27.8891 33 19.5876C33 11.286 26.2703 4.55632 17.9688 4.55632C9.66722 4.55632 2.9375 11.286 2.9375 19.5876C2.9375 27.8891 9.66722 34.6188 17.9688 34.6188Z" fill="#FDCD56"/>
<path id="Vector_13" fill-rule="evenodd" clip-rule="evenodd" d="M17.9688 26.6527C16.9393 26.6527 15.9098 26.1789 15.1286 25.231C14.03 23.8976 13.8877 22.2809 14.233 20.5798C14.8292 17.6437 16.8776 14.9438 17.9686 12.5222C19.0596 14.9438 21.1083 17.6437 21.7042 20.5798C22.0497 22.2812 21.9075 23.8976 20.8086 25.231C20.0279 26.1789 18.9984 26.6527 17.9688 26.6527Z" fill="#66D4F1"/>
</g>
</g>
</g>
</svg>
