<svg width="25" height="24" viewBox="0 0 25 24" fill="none" xmlns="http://www.w3.org/2000/svg">
<g id="li:home">
<path id="Vector (Stroke)" fill-rule="evenodd" clip-rule="evenodd" d="M12.1361 1.21065C12.4972 0.929784 13.0028 0.929784 13.3639 1.21065L22.3639 8.21065C22.6075 8.4001 22.75 8.69141 22.75 9V20C22.75 20.7957 22.4339 21.5587 21.8713 22.1213C21.3087 22.6839 20.5457 23 19.75 23H5.75C4.95435 23 4.19129 22.6839 3.62868 22.1213C3.06607 21.5587 2.75 20.7957 2.75 20V9C2.75 8.69141 2.89247 8.4001 3.13606 8.21065L12.1361 1.21065ZM4.75 9.48908V20C4.75 20.2652 4.85536 20.5196 5.04289 20.7071C5.23043 20.8946 5.48478 21 5.75 21H19.75C20.0152 21 20.2696 20.8946 20.4571 20.7071C20.6446 20.5196 20.75 20.2652 20.75 20V9.48908L12.75 3.26686L4.75 9.48908Z" fill="#320108"/>
<path id="Vector (Stroke)_2" fill-rule="evenodd" clip-rule="evenodd" d="M8.75 12C8.75 11.4477 9.19772 11 9.75 11H15.75C16.3023 11 16.75 11.4477 16.75 12V22C16.75 22.5523 16.3023 23 15.75 23C15.1977 23 14.75 22.5523 14.75 22V13H10.75V22C10.75 22.5523 10.3023 23 9.75 23C9.19772 23 8.75 22.5523 8.75 22V12Z" fill="#320108"/>
</g>
</svg>
