<svg width="16" height="18" viewBox="0 0 16 18" fill="none" xmlns="http://www.w3.org/2000/svg">
<g id="Group 9">
<g id="Group">
<g id="Group_2">
<path id="Vector" d="M10.744 0.767806C10.7385 0.767768 10.7331 0.767806 10.7276 0.767922C10.3535 0.761498 10.0451 1.05958 10.0387 1.43366C10.0386 1.4407 10.0386 1.44774 10.0386 1.45478V3.03719H11.4233V1.45478C11.4254 1.0775 11.1213 0.76996 10.744 0.767806Z" fill="#58534E"/>
</g>
</g>
<g id="Group_3">
<g id="Group_4">
<path id="Vector_2" d="M12.3584 2.46027H12.0387V3.35344C12.0419 3.5154 11.9132 3.64936 11.7512 3.65259C11.7473 3.65267 11.7434 3.65267 11.7395 3.65259H9.71555C9.55662 3.65521 9.4257 3.52855 9.42305 3.36963C9.42297 3.36424 9.42301 3.35882 9.42324 3.35344V2.46027H4.19238V3.35344C4.18715 3.52348 4.04534 3.65729 3.87526 3.65259H1.85138C1.68295 3.65694 1.54291 3.52398 1.53853 3.35555C1.53853 3.35486 1.53849 3.35413 1.53849 3.35344V2.46027H1.25175C0.55974 2.46377 0.000461546 3.02551 0 3.71752V5.03723H13.6156V3.71752C13.6126 3.02443 13.0515 2.4633 12.3584 2.46027Z" fill="#58534E"/>
</g>
</g>
<g id="Group_5">
<g id="Group_6">
<path id="Vector_3" d="M2.86328 0.767914C2.47493 0.767914 2.15381 1.0665 2.15381 1.45477V3.03718H3.57691V1.45477C3.57691 1.0665 3.2516 0.767914 2.86328 0.767914Z" fill="#58534E"/>
</g>
</g>
<g id="Group_7">
<g id="Group_8">
<path id="Vector_4" d="M0 5.65262V14.0725C0 14.7625 0.561548 15.3451 1.25175 15.3451H6.95304C6.46815 14.5313 6.21137 13.6019 6.20968 12.6546C6.20968 9.7853 8.54541 7.44042 11.4147 7.44042C12.1749 7.44226 12.9258 7.60869 13.6156 7.92823V5.65262H0Z" fill="#58534E"/>
</g>
</g>
<g id="Group_9">
<g id="Group_10">
<path id="Vector_5" d="M11.4118 8.05582C8.87784 8.05586 6.82369 10.1101 6.82373 12.6441C6.82377 15.1781 8.878 17.2322 11.412 17.2322C13.946 17.2322 16.0001 15.178 16.0001 12.644C15.9973 10.1112 13.9447 8.05862 11.4118 8.05582ZM13.2238 13.3451H11.1614C10.9886 13.3419 10.8493 13.2025 10.8465 13.0297V10.3312C10.8465 10.1612 10.9842 10.0235 11.1542 10.0235C11.3241 10.0235 11.4618 10.1612 11.4618 10.3312V12.7297H13.2238C13.3937 12.7297 13.5315 12.8674 13.5315 13.0374C13.5315 13.2073 13.3937 13.3451 13.2238 13.3451Z" fill="#58534E"/>
</g>
</g>
</g>
</svg>
